# xmcd CD database file
# Copyright (C) 1997 Ti Kan
# 
# Track frame offsets:
#     187
#     19850
#     31312
#     42655
#     61097
#     76600
#     103407
#     113800
#     130140
#     142227
#     179290
#     193730
# 
# Disc length: 2963 seconds
# 
# Revision: 1
# Processed by: cddbd v1.4b41PL1 Copyright (c) Steve Scherf et al.
# Submitted via: DiscPlay 4.0.3
# 
DISCID=a70b910c
DTITLE=Buck Owens - Buck Owens and the Buckaroos Live at Carnegie Hall
DYEAR=1900
DGENRE=
TTITLE0=Act Naturally
TTITLE1=Together Again
TTITLE2=Love's Gonna Live Here
TTITLE3=Medley: In the Palm of Your Hand * Cryin' Time*Don't Let Her Know*On
TTITLE3=ly You
TTITLE4=Medley: I Don't Care* My Heart Skips a Beat*Gonna Have Love
TTITLE5=Waitin' in Your Welfare Line
TTITLE6=Buckaroo
TTITLE7=The Streets of Laredo
TTITLE8=I've Got A Tiger By the Tail
TTITLE9=Fun 'N' Games With Don and Doyle
TTITLE10=Twist and Shout
TTITLE11=Medley: Under Your Spell Again*Above and Beyond*Excuse Me(I Think I
TTITLE11='ve Got A Heartache)*Foolin Around*Hillo Trouble*Truck Drivin Man
EXTD=
EXTT0=
EXTT1=
EXTT2=
EXTT3=
EXTT4=
EXTT5=
EXTT6=
EXTT7=
EXTT8=
EXTT9=
EXTT10=
EXTT11=
PLAYORDER=
